<mxfile host="app.diagrams.net" agent="Mozilla/5.0 (Windows NT 10.0; Win64; x64) AppleWebKit/537.36 (KHTML, like Gecko) Chrome/128.0.0.0 Safari/537.36" version="24.7.13">
  <diagram name="Page-1" id="LfvI4KJD69mfQng8x0Fe">
    <mxGraphModel dx="2074" dy="1146" grid="1" gridSize="10" guides="1" tooltips="1" connect="1" arrows="1" fold="1" page="1" pageScale="1" pageWidth="827" pageHeight="1169" math="0" shadow="0">
      <root>
        <mxCell id="0" />
        <mxCell id="1" parent="0" />
        <mxCell id="G7j56I49lyj9zgSJEzgZ-1" value="Capteur 1" style="verticalAlign=top;align=left;spacingTop=8;spacingLeft=2;spacingRight=12;shape=cube;size=10;direction=south;fontStyle=4;html=1;whiteSpace=wrap;" parent="1" vertex="1">
          <mxGeometry x="30" y="100" width="180" height="120" as="geometry" />
        </mxCell>
        <mxCell id="G7j56I49lyj9zgSJEzgZ-2" value="Capteur 2" style="verticalAlign=top;align=left;spacingTop=8;spacingLeft=2;spacingRight=12;shape=cube;size=10;direction=south;fontStyle=4;html=1;whiteSpace=wrap;" parent="1" vertex="1">
          <mxGeometry x="234" y="100" width="180" height="120" as="geometry" />
        </mxCell>
        <mxCell id="G7j56I49lyj9zgSJEzgZ-3" value="Capteur 3" style="verticalAlign=top;align=left;spacingTop=8;spacingLeft=2;spacingRight=12;shape=cube;size=10;direction=south;fontStyle=4;html=1;whiteSpace=wrap;" parent="1" vertex="1">
          <mxGeometry x="440" y="100" width="180" height="120" as="geometry" />
        </mxCell>
        <mxCell id="G7j56I49lyj9zgSJEzgZ-4" value="Serveur BDD" style="verticalAlign=top;align=left;spacingTop=8;spacingLeft=2;spacingRight=12;shape=cube;size=10;direction=south;fontStyle=4;html=1;whiteSpace=wrap;" parent="1" vertex="1">
          <mxGeometry x="160" y="610" width="180" height="120" as="geometry" />
        </mxCell>
        <mxCell id="G7j56I49lyj9zgSJEzgZ-5" value="Serveur Applicatif" style="verticalAlign=top;align=left;spacingTop=8;spacingLeft=2;spacingRight=12;shape=cube;size=10;direction=south;fontStyle=4;html=1;whiteSpace=wrap;" parent="1" vertex="1">
          <mxGeometry x="40" y="340" width="380" height="200" as="geometry" />
        </mxCell>
        <mxCell id="G7j56I49lyj9zgSJEzgZ-6" value="Serveur d&#39;authentification" style="verticalAlign=top;align=left;spacingTop=8;spacingLeft=2;spacingRight=12;shape=cube;size=10;direction=south;fontStyle=4;html=1;whiteSpace=wrap;" parent="1" vertex="1">
          <mxGeometry x="450" y="340" width="180" height="120" as="geometry" />
        </mxCell>
        <mxCell id="G7j56I49lyj9zgSJEzgZ-7" value="Poste client&lt;div&gt;&lt;br&gt;&lt;/div&gt;" style="verticalAlign=top;align=left;spacingTop=8;spacingLeft=2;spacingRight=12;shape=cube;size=10;direction=south;fontStyle=4;html=1;whiteSpace=wrap;" parent="1" vertex="1">
          <mxGeometry x="450" y="610" width="180" height="120" as="geometry" />
        </mxCell>
        <mxCell id="G7j56I49lyj9zgSJEzgZ-8" value="Web Browser" style="shape=module;align=left;spacingLeft=20;align=center;verticalAlign=top;whiteSpace=wrap;html=1;" parent="1" vertex="1">
          <mxGeometry x="490" y="650" width="100" height="50" as="geometry" />
        </mxCell>
        <mxCell id="G7j56I49lyj9zgSJEzgZ-9" value="Gestion des accès et des droits" style="shape=module;align=left;spacingLeft=20;align=center;verticalAlign=top;whiteSpace=wrap;html=1;" parent="1" vertex="1">
          <mxGeometry x="480" y="390" width="100" height="50" as="geometry" />
        </mxCell>
        <mxCell id="G7j56I49lyj9zgSJEzgZ-10" value="Base de données MySQL" style="shape=module;align=left;spacingLeft=20;align=center;verticalAlign=top;whiteSpace=wrap;html=1;" parent="1" vertex="1">
          <mxGeometry x="200" y="660" width="100" height="50" as="geometry" />
        </mxCell>
        <mxCell id="G7j56I49lyj9zgSJEzgZ-11" value="Réception et traitement des informations" style="shape=module;align=left;spacingLeft=20;align=center;verticalAlign=top;whiteSpace=wrap;html=1;" parent="1" vertex="1">
          <mxGeometry x="55" y="375" width="130" height="50" as="geometry" />
        </mxCell>
        <mxCell id="G7j56I49lyj9zgSJEzgZ-12" value="Mise en forme des information pour consultation" style="shape=module;align=left;spacingLeft=20;align=center;verticalAlign=top;whiteSpace=wrap;html=1;" parent="1" vertex="1">
          <mxGeometry x="210" y="375" width="150" height="50" as="geometry" />
        </mxCell>
        <mxCell id="G7j56I49lyj9zgSJEzgZ-15" value="Envoi des données mesurées" style="shape=module;align=left;spacingLeft=20;align=center;verticalAlign=top;whiteSpace=wrap;html=1;" parent="1" vertex="1">
          <mxGeometry x="50" y="140" width="100" height="50" as="geometry" />
        </mxCell>
        <mxCell id="G7j56I49lyj9zgSJEzgZ-16" value="Envoi des données mesurées" style="shape=module;align=left;spacingLeft=20;align=center;verticalAlign=top;whiteSpace=wrap;html=1;" parent="1" vertex="1">
          <mxGeometry x="260" y="140" width="100" height="50" as="geometry" />
        </mxCell>
        <mxCell id="G7j56I49lyj9zgSJEzgZ-17" value="Envoi des données mesurées" style="shape=module;align=left;spacingLeft=20;align=center;verticalAlign=top;whiteSpace=wrap;html=1;" parent="1" vertex="1">
          <mxGeometry x="470" y="140" width="100" height="50" as="geometry" />
        </mxCell>
        <mxCell id="G7j56I49lyj9zgSJEzgZ-19" value="" style="endArrow=block;startArrow=none;endFill=1;startFill=0;html=1;rounded=0;" parent="1" source="G7j56I49lyj9zgSJEzgZ-15" target="G7j56I49lyj9zgSJEzgZ-11" edge="1">
          <mxGeometry width="160" relative="1" as="geometry">
            <mxPoint x="330" y="560" as="sourcePoint" />
            <mxPoint x="490" y="560" as="targetPoint" />
          </mxGeometry>
        </mxCell>
        <mxCell id="G7j56I49lyj9zgSJEzgZ-20" value="" style="endArrow=block;startArrow=none;endFill=1;startFill=0;html=1;rounded=0;" parent="1" source="G7j56I49lyj9zgSJEzgZ-16" target="G7j56I49lyj9zgSJEzgZ-11" edge="1">
          <mxGeometry width="160" relative="1" as="geometry">
            <mxPoint x="112" y="200" as="sourcePoint" />
            <mxPoint x="128" y="385" as="targetPoint" />
          </mxGeometry>
        </mxCell>
        <mxCell id="G7j56I49lyj9zgSJEzgZ-21" value="" style="endArrow=block;startArrow=none;endFill=1;startFill=0;html=1;rounded=0;exitX=0.25;exitY=0.46;exitDx=0;exitDy=0;exitPerimeter=0;" parent="1" source="G7j56I49lyj9zgSJEzgZ-17" target="G7j56I49lyj9zgSJEzgZ-11" edge="1">
          <mxGeometry width="160" relative="1" as="geometry">
            <mxPoint x="300" y="200" as="sourcePoint" />
            <mxPoint x="150" y="385" as="targetPoint" />
          </mxGeometry>
        </mxCell>
        <mxCell id="G7j56I49lyj9zgSJEzgZ-22" value="" style="endArrow=open;endSize=12;dashed=1;html=1;rounded=0;" parent="1" source="G7j56I49lyj9zgSJEzgZ-11" target="G7j56I49lyj9zgSJEzgZ-10" edge="1">
          <mxGeometry width="160" relative="1" as="geometry">
            <mxPoint x="330" y="560" as="sourcePoint" />
            <mxPoint x="490" y="560" as="targetPoint" />
          </mxGeometry>
        </mxCell>
        <mxCell id="G7j56I49lyj9zgSJEzgZ-23" value="" style="endArrow=open;endSize=12;dashed=1;html=1;rounded=0;entryX=0.62;entryY=0.1;entryDx=0;entryDy=0;entryPerimeter=0;" parent="1" source="G7j56I49lyj9zgSJEzgZ-12" target="G7j56I49lyj9zgSJEzgZ-10" edge="1">
          <mxGeometry width="160" relative="1" as="geometry">
            <mxPoint x="141" y="435" as="sourcePoint" />
            <mxPoint x="249" y="670" as="targetPoint" />
          </mxGeometry>
        </mxCell>
        <mxCell id="G7j56I49lyj9zgSJEzgZ-24" value="" style="endArrow=block;startArrow=block;endFill=1;startFill=1;html=1;rounded=0;" parent="1" source="G7j56I49lyj9zgSJEzgZ-9" target="G7j56I49lyj9zgSJEzgZ-8" edge="1">
          <mxGeometry width="160" relative="1" as="geometry">
            <mxPoint x="330" y="560" as="sourcePoint" />
            <mxPoint x="490" y="560" as="targetPoint" />
          </mxGeometry>
        </mxCell>
        <mxCell id="G7j56I49lyj9zgSJEzgZ-25" value="" style="endArrow=block;startArrow=block;endFill=1;startFill=1;html=1;rounded=0;" parent="1" source="G7j56I49lyj9zgSJEzgZ-9" target="G7j56I49lyj9zgSJEzgZ-12" edge="1">
          <mxGeometry width="160" relative="1" as="geometry">
            <mxPoint x="541" y="450" as="sourcePoint" />
            <mxPoint x="549" y="660" as="targetPoint" />
          </mxGeometry>
        </mxCell>
        <mxCell id="y82MzQvAjiDPN9uxvTGh-1" value="Fichier log" style="html=1;whiteSpace=wrap;" vertex="1" parent="1">
          <mxGeometry x="290" y="470" width="110" height="50" as="geometry" />
        </mxCell>
        <mxCell id="y82MzQvAjiDPN9uxvTGh-3" value="" style="endArrow=block;startArrow=none;endFill=1;startFill=0;html=1;rounded=0;" edge="1" parent="1" source="G7j56I49lyj9zgSJEzgZ-12" target="y82MzQvAjiDPN9uxvTGh-1">
          <mxGeometry width="160" relative="1" as="geometry">
            <mxPoint x="490" y="422" as="sourcePoint" />
            <mxPoint x="870" y="510" as="targetPoint" />
          </mxGeometry>
        </mxCell>
      </root>
    </mxGraphModel>
  </diagram>
</mxfile>
